<mxfile host="app.diagrams.net" agent="Mozilla/5.0 (Macintosh; Intel Mac OS X 10_15_7) AppleWebKit/537.36 (KHTML, like Gecko) Chrome/133.0.0.0 Safari/537.36" version="26.1.1">
  <diagram name="Sida-1" id="fuKgmOUG83cluatKNkWX">
    <mxGraphModel dx="954" dy="605" grid="1" gridSize="10" guides="1" tooltips="1" connect="1" arrows="1" fold="1" page="1" pageScale="1" pageWidth="827" pageHeight="1169" math="0" shadow="0">
      <root>
        <mxCell id="0" />
        <mxCell id="1" parent="0" />
        <mxCell id="iFKTmHwewYyuTtw9cPjH-38" value="" style="strokeWidth=2;html=1;shape=mxgraph.flowchart.database;whiteSpace=wrap;labelBackgroundColor=none;fillColor=#FAE5C7;strokeColor=#0F8B8D;fontColor=#143642;" parent="1" vertex="1">
          <mxGeometry x="535" y="510" width="290" height="235" as="geometry" />
        </mxCell>
        <mxCell id="iFKTmHwewYyuTtw9cPjH-37" value="" style="strokeWidth=2;html=1;shape=mxgraph.flowchart.database;whiteSpace=wrap;labelBackgroundColor=none;fillColor=#FAE5C7;strokeColor=#0F8B8D;fontColor=#143642;" parent="1" vertex="1">
          <mxGeometry x="1080" y="570" width="170" height="160" as="geometry" />
        </mxCell>
        <mxCell id="iFKTmHwewYyuTtw9cPjH-1" value="" style="rounded=1;whiteSpace=wrap;html=1;labelBackgroundColor=none;fillColor=#FAE5C7;strokeColor=#0F8B8D;fontColor=#143642;" parent="1" vertex="1">
          <mxGeometry x="80" y="100" width="240" height="170" as="geometry" />
        </mxCell>
        <mxCell id="iFKTmHwewYyuTtw9cPjH-2" value="" style="rounded=1;whiteSpace=wrap;html=1;labelBackgroundColor=none;fillColor=#FAE5C7;strokeColor=#0F8B8D;fontColor=#143642;" parent="1" vertex="1">
          <mxGeometry x="100" y="120" width="240" height="170" as="geometry" />
        </mxCell>
        <mxCell id="iFKTmHwewYyuTtw9cPjH-3" value="" style="rounded=1;whiteSpace=wrap;html=1;labelBackgroundColor=none;fillColor=#FAE5C7;strokeColor=#0F8B8D;fontColor=#143642;" parent="1" vertex="1">
          <mxGeometry x="120" y="140" width="240" height="450" as="geometry" />
        </mxCell>
        <mxCell id="iFKTmHwewYyuTtw9cPjH-6" value="" style="rounded=1;whiteSpace=wrap;html=1;labelBackgroundColor=none;fillColor=#FAE5C7;strokeColor=#0F8B8D;fontColor=#143642;" parent="1" vertex="1">
          <mxGeometry x="585" y="300" width="200" height="115" as="geometry" />
        </mxCell>
        <mxCell id="iFKTmHwewYyuTtw9cPjH-7" value="" style="rounded=1;whiteSpace=wrap;html=1;labelBackgroundColor=none;fillColor=#FAE5C7;strokeColor=#0F8B8D;fontColor=#143642;" parent="1" vertex="1">
          <mxGeometry x="585" y="127.5" width="200" height="115" as="geometry" />
        </mxCell>
        <mxCell id="iFKTmHwewYyuTtw9cPjH-8" value="" style="endArrow=classic;html=1;rounded=0;exitX=1;exitY=0.109;exitDx=0;exitDy=0;exitPerimeter=0;labelBackgroundColor=none;fontColor=default;strokeColor=#A8201A;" parent="1" source="iFKTmHwewYyuTtw9cPjH-3" edge="1">
          <mxGeometry width="50" height="50" relative="1" as="geometry">
            <mxPoint x="460" y="210" as="sourcePoint" />
            <mxPoint x="580" y="189" as="targetPoint" />
          </mxGeometry>
        </mxCell>
        <mxCell id="iFKTmHwewYyuTtw9cPjH-9" value="" style="endArrow=classic;html=1;rounded=0;exitX=0.5;exitY=1;exitDx=0;exitDy=0;entryX=0.5;entryY=0;entryDx=0;entryDy=0;labelBackgroundColor=none;fontColor=default;strokeColor=#A8201A;" parent="1" source="iFKTmHwewYyuTtw9cPjH-7" target="iFKTmHwewYyuTtw9cPjH-6" edge="1">
          <mxGeometry width="50" height="50" relative="1" as="geometry">
            <mxPoint x="690" y="300" as="sourcePoint" />
            <mxPoint x="740" y="250" as="targetPoint" />
          </mxGeometry>
        </mxCell>
        <mxCell id="iFKTmHwewYyuTtw9cPjH-10" value="" style="endArrow=classic;html=1;rounded=0;exitX=0;exitY=0.25;exitDx=0;exitDy=0;entryX=1.008;entryY=0.42;entryDx=0;entryDy=0;entryPerimeter=0;labelBackgroundColor=none;fontColor=default;strokeColor=#A8201A;" parent="1" source="iFKTmHwewYyuTtw9cPjH-6" target="iFKTmHwewYyuTtw9cPjH-3" edge="1">
          <mxGeometry width="50" height="50" relative="1" as="geometry">
            <mxPoint x="580" y="340" as="sourcePoint" />
            <mxPoint x="500" y="360" as="targetPoint" />
          </mxGeometry>
        </mxCell>
        <mxCell id="iFKTmHwewYyuTtw9cPjH-11" value="" style="endArrow=classic;html=1;rounded=0;exitX=1;exitY=0.536;exitDx=0;exitDy=0;exitPerimeter=0;labelBackgroundColor=none;fontColor=default;strokeColor=#A8201A;" parent="1" source="iFKTmHwewYyuTtw9cPjH-3" edge="1">
          <mxGeometry width="50" height="50" relative="1" as="geometry">
            <mxPoint x="613" y="380" as="sourcePoint" />
            <mxPoint x="580" y="380" as="targetPoint" />
          </mxGeometry>
        </mxCell>
        <mxCell id="iFKTmHwewYyuTtw9cPjH-12" value="" style="endArrow=classic;html=1;rounded=0;exitX=0.415;exitY=-0.007;exitDx=0;exitDy=0;exitPerimeter=0;labelBackgroundColor=none;fontColor=default;strokeColor=#A8201A;" parent="1" edge="1">
          <mxGeometry width="50" height="50" relative="1" as="geometry">
            <mxPoint x="650.1500000000001" y="507.9000000000001" as="sourcePoint" />
            <mxPoint x="650" y="420" as="targetPoint" />
          </mxGeometry>
        </mxCell>
        <mxCell id="iFKTmHwewYyuTtw9cPjH-13" value="" style="endArrow=classic;html=1;rounded=0;entryX=0.561;entryY=-0.013;entryDx=0;entryDy=0;entryPerimeter=0;exitX=0.62;exitY=0.983;exitDx=0;exitDy=0;exitPerimeter=0;labelBackgroundColor=none;fontColor=default;strokeColor=#A8201A;" parent="1" edge="1">
          <mxGeometry width="50" height="50" relative="1" as="geometry">
            <mxPoint x="709" y="414.04499999999996" as="sourcePoint" />
            <mxPoint x="710.01" y="507.0999999999999" as="targetPoint" />
          </mxGeometry>
        </mxCell>
        <mxCell id="iFKTmHwewYyuTtw9cPjH-16" value="" style="endArrow=classic;html=1;rounded=0;entryX=0;entryY=0.338;entryDx=0;entryDy=0;entryPerimeter=0;labelBackgroundColor=none;fontColor=default;strokeColor=#A8201A;" parent="1" target="iFKTmHwewYyuTtw9cPjH-37" edge="1">
          <mxGeometry width="50" height="50" relative="1" as="geometry">
            <mxPoint x="830" y="624" as="sourcePoint" />
            <mxPoint x="1050" y="624" as="targetPoint" />
          </mxGeometry>
        </mxCell>
        <mxCell id="iFKTmHwewYyuTtw9cPjH-17" value="" style="endArrow=classic;html=1;rounded=0;exitX=0;exitY=0.656;exitDx=0;exitDy=0;exitPerimeter=0;labelBackgroundColor=none;fontColor=default;strokeColor=#A8201A;" parent="1" source="iFKTmHwewYyuTtw9cPjH-37" edge="1">
          <mxGeometry width="50" height="50" relative="1" as="geometry">
            <mxPoint x="1049.08" y="675.96" as="sourcePoint" />
            <mxPoint x="830" y="675" as="targetPoint" />
          </mxGeometry>
        </mxCell>
        <mxCell id="iFKTmHwewYyuTtw9cPjH-18" value="External DB" style="text;html=1;align=center;verticalAlign=middle;whiteSpace=wrap;rounded=0;labelBackgroundColor=none;fontColor=#143642;" parent="1" vertex="1">
          <mxGeometry x="1135" y="645" width="60" height="30" as="geometry" />
        </mxCell>
        <mxCell id="iFKTmHwewYyuTtw9cPjH-19" value="Companies DB" style="text;html=1;align=center;verticalAlign=middle;whiteSpace=wrap;rounded=0;labelBackgroundColor=none;fontColor=#143642;" parent="1" vertex="1">
          <mxGeometry x="655" y="645" width="60" height="30" as="geometry" />
        </mxCell>
        <mxCell id="iFKTmHwewYyuTtw9cPjH-21" value="NAICS DB" style="text;html=1;align=center;verticalAlign=middle;whiteSpace=wrap;rounded=0;labelBackgroundColor=none;fontColor=#143642;" parent="1" vertex="1">
          <mxGeometry x="650" y="173" width="60" height="30" as="geometry" />
        </mxCell>
        <mxCell id="iFKTmHwewYyuTtw9cPjH-22" value="L1" style="text;html=1;align=center;verticalAlign=middle;whiteSpace=wrap;rounded=0;labelBackgroundColor=none;fontColor=#143642;" parent="1" vertex="1">
          <mxGeometry x="70" y="100" width="60" height="30" as="geometry" />
        </mxCell>
        <mxCell id="iFKTmHwewYyuTtw9cPjH-23" value="L2" style="text;html=1;align=center;verticalAlign=middle;whiteSpace=wrap;rounded=0;labelBackgroundColor=none;fontColor=#143642;" parent="1" vertex="1">
          <mxGeometry x="90" y="120" width="60" height="30" as="geometry" />
        </mxCell>
        <mxCell id="iFKTmHwewYyuTtw9cPjH-25" value="L3" style="text;html=1;align=center;verticalAlign=middle;whiteSpace=wrap;rounded=0;labelBackgroundColor=none;fontColor=#143642;" parent="1" vertex="1">
          <mxGeometry x="120" y="143" width="60" height="30" as="geometry" />
        </mxCell>
        <mxCell id="iFKTmHwewYyuTtw9cPjH-26" value="NAICS Code" style="text;html=1;align=center;verticalAlign=middle;whiteSpace=wrap;rounded=0;labelBackgroundColor=none;fontColor=#143642;" parent="1" vertex="1">
          <mxGeometry x="210" y="173" width="60" height="30" as="geometry" />
        </mxCell>
        <mxCell id="iFKTmHwewYyuTtw9cPjH-27" value="" style="endArrow=none;html=1;rounded=0;exitX=0;exitY=0.25;exitDx=0;exitDy=0;entryX=1;entryY=0.25;entryDx=0;entryDy=0;labelBackgroundColor=none;fontColor=default;strokeColor=#A8201A;" parent="1" source="iFKTmHwewYyuTtw9cPjH-3" target="iFKTmHwewYyuTtw9cPjH-3" edge="1">
          <mxGeometry width="50" height="50" relative="1" as="geometry">
            <mxPoint x="520" y="430" as="sourcePoint" />
            <mxPoint x="570" y="380" as="targetPoint" />
          </mxGeometry>
        </mxCell>
        <mxCell id="iFKTmHwewYyuTtw9cPjH-29" value="&lt;font style=&quot;color: rgb(0, 0, 0);&quot;&gt;1&lt;/font&gt;" style="text;html=1;align=center;verticalAlign=middle;whiteSpace=wrap;rounded=0;labelBackgroundColor=none;fontColor=#143642;" parent="1" vertex="1">
          <mxGeometry x="440" y="160" width="60" height="30" as="geometry" />
        </mxCell>
        <mxCell id="iFKTmHwewYyuTtw9cPjH-30" value="2" style="text;html=1;align=center;verticalAlign=middle;whiteSpace=wrap;rounded=0;labelBackgroundColor=none;fontColor=#143642;" parent="1" vertex="1">
          <mxGeometry x="670" y="260" width="60" height="30" as="geometry" />
        </mxCell>
        <mxCell id="iFKTmHwewYyuTtw9cPjH-32" value="3" style="text;html=1;align=center;verticalAlign=middle;whiteSpace=wrap;rounded=0;labelBackgroundColor=none;fontColor=#143642;" parent="1" vertex="1">
          <mxGeometry x="700" y="440" width="60" height="30" as="geometry" />
        </mxCell>
        <mxCell id="iFKTmHwewYyuTtw9cPjH-33" value="4" style="text;html=1;align=center;verticalAlign=middle;whiteSpace=wrap;rounded=0;labelBackgroundColor=none;fontColor=#143642;" parent="1" vertex="1">
          <mxGeometry x="590" y="440" width="60" height="30" as="geometry" />
        </mxCell>
        <mxCell id="iFKTmHwewYyuTtw9cPjH-34" value="5" style="text;html=1;align=center;verticalAlign=middle;whiteSpace=wrap;rounded=0;labelBackgroundColor=none;fontColor=#143642;" parent="1" vertex="1">
          <mxGeometry x="440" y="385" width="60" height="30" as="geometry" />
        </mxCell>
        <mxCell id="iFKTmHwewYyuTtw9cPjH-35" value="6" style="text;html=1;align=center;verticalAlign=middle;whiteSpace=wrap;rounded=0;labelBackgroundColor=none;fontColor=#143642;" parent="1" vertex="1">
          <mxGeometry x="440" y="300" width="60" height="30" as="geometry" />
        </mxCell>
        <mxCell id="iFKTmHwewYyuTtw9cPjH-36" value="" style="endArrow=none;dashed=1;html=1;rounded=0;labelBackgroundColor=none;fontColor=default;strokeColor=#A8201A;" parent="1" edge="1">
          <mxGeometry width="50" height="50" relative="1" as="geometry">
            <mxPoint x="970" y="760" as="sourcePoint" />
            <mxPoint x="970" y="560" as="targetPoint" />
          </mxGeometry>
        </mxCell>
        <mxCell id="RUvVfAlmBm02Kkci9l_3-2" value="&lt;div style=&quot;line-height: 60%;&quot;&gt;&lt;h1 style=&quot;margin-top: 0px; line-height: 60%;&quot;&gt;&lt;span style=&quot;font-size: 12px; line-height: 60%;&quot;&gt;Ranking Module&lt;/span&gt;&lt;/h1&gt;&lt;h1 style=&quot;margin-top: 0px; line-height: 60%;&quot;&gt;&lt;span style=&quot;background-color: transparent; color: light-dark(rgb(255, 255, 255), rgb(18, 18, 18)); font-size: 12px; font-weight: 400; line-height: 60%;&quot;&gt;List and rank all companies with specific NAICS&lt;/span&gt;&lt;/h1&gt;&lt;/div&gt;" style="text;html=1;align=center;verticalAlign=middle;whiteSpace=wrap;rounded=0;fontColor=#143642;labelBackgroundColor=none;" vertex="1" parent="1">
          <mxGeometry x="600" y="314" width="160" height="80" as="geometry" />
        </mxCell>
        <mxCell id="RUvVfAlmBm02Kkci9l_3-3" value="" style="rounded=1;whiteSpace=wrap;html=1;strokeColor=#0F8B8D;fontColor=#143642;fillColor=#FAE5C7;arcSize=19;labelBackgroundColor=none;" vertex="1" parent="1">
          <mxGeometry x="140" y="260" width="200" height="315" as="geometry" />
        </mxCell>
        <mxCell id="RUvVfAlmBm02Kkci9l_3-4" value="Display top 10 companies" style="text;html=1;align=center;verticalAlign=middle;whiteSpace=wrap;rounded=0;fontColor=#143642;labelBackgroundColor=none;" vertex="1" parent="1">
          <mxGeometry x="190" y="274" width="100" height="26" as="geometry" />
        </mxCell>
        <mxCell id="RUvVfAlmBm02Kkci9l_3-6" value="List Item" style="text;strokeColor=none;fillColor=none;align=left;verticalAlign=middle;spacingLeft=4;spacingRight=4;overflow=hidden;points=[[0,0.5],[1,0.5]];portConstraint=eastwest;rotatable=0;whiteSpace=wrap;html=1;fontColor=#143642;labelBackgroundColor=none;" vertex="1" parent="1">
          <mxGeometry x="160" y="330" width="80" height="30" as="geometry" />
        </mxCell>
      </root>
    </mxGraphModel>
  </diagram>
</mxfile>
